<svg xmlns="http://www.w3.org/2000/svg" width="23" height="20" viewBox="0 0 23 20">
    <path fill="#111" fill-rule="evenodd" d="M22.103 14.176c.256 0 .47.087.64.26.172.174.257.38.257.62s-.085.442-.256.607a.886.886 0 0 1-.641.248h-2.898c.342.462.513.975.513 1.536 0 .71-.256 1.314-.77 1.81A2.577 2.577 0 0 1 17.09 20a2.577 2.577 0 0 1-1.86-.743 2.421 2.421 0 0 1-.768-1.81c0-.561.179-1.074.538-1.536h-4.128c.342.462.513.975.513 1.536 0 .71-.257 1.314-.77 1.81A2.577 2.577 0 0 1 8.756 20a2.577 2.577 0 0 1-1.859-.743 2.421 2.421 0 0 1-.769-1.81c0-.561.18-1.074.539-1.536H5.05c-.376 0-.65-.157-.82-.471-.171-.314-.146-.62.077-.917l1.923-3.024-1.487-6.964-.616-2.775H.898a.876.876 0 0 1-.629-.26A.832.832 0 0 1 0 .88C0 .64.09.434.27.26A.876.876 0 0 1 .896 0h3.975c.205 0 .393.066.564.198.17.132.282.298.333.496l.128.62 16.206.074c.273 0 .5.099.68.297.179.199.243.43.191.694l-1.769 9.566a.797.797 0 0 1-.295.496.886.886 0 0 1-.577.198l-12.743.025-.77 1.512h15.283zM6 3l1.745 8 11.77-.025L21 3.05 6 3zm3.714 14.719c.19-.209.286-.448.286-.719a.98.98 0 0 0-.286-.703.932.932 0 0 0-.698-.297.984.984 0 0 0-.714.297A.954.954 0 0 0 8 17c0 .27.1.505.302.703.2.198.439.297.714.297a.958.958 0 0 0 .698-.281zm8 0c.19-.209.286-.448.286-.719a.98.98 0 0 0-.286-.703.932.932 0 0 0-.698-.297.984.984 0 0 0-.714.297A.954.954 0 0 0 16 17c0 .27.1.505.302.703.2.198.439.297.714.297a.958.958 0 0 0 .698-.281z"/>
</svg>
